<svg width="65" height="65" viewBox="0 0 65 65" fill="none" xmlns="http://www.w3.org/2000/svg">
<rect width="65" height="65" rx="25" fill="url(#paint0_linear)"/>
<path fill-rule="evenodd" clip-rule="evenodd" d="M22.1011 19.8962C21.9482 18.0098 24.0061 16.9668 25.4188 17.936L25.8757 18.2495C32.8434 23.0299 39.3645 28.4249 45.3597 34.3691C46.8532 35.8499 45.5362 38.1868 43.6726 37.9818L35.5536 37.0888C34.727 36.9979 33.9652 37.4543 33.6515 38.1653L30.3699 45.6022C29.5773 47.3983 26.9667 47.2314 26.4472 45.2935C24.2661 37.1565 22.8265 28.8405 22.1458 20.4464L22.1011 19.8962ZM24.4398 20.1205L24.4503 20.2493C25.1021 28.2869 26.4621 36.2519 28.5147 44.0527L31.5452 37.1849C32.2859 35.5063 34.0178 34.5313 35.7998 34.7273L43.2106 35.5424C37.465 29.9082 31.235 24.7826 24.5912 20.2243L24.4398 20.1205Z" fill="white" stroke="white" stroke-width="0.5"/>
<defs>
<linearGradient id="paint0_linear" x1="0" y1="0" x2="65" y2="65" gradientUnits="userSpaceOnUse">
<stop stop-color="#5075EB"/>
<stop offset="1" stop-color="#4D72EA"/>
</linearGradient>
</defs>
</svg>
