<svg width="65" height="65" viewBox="0 0 65 65" fill="none" xmlns="http://www.w3.org/2000/svg">
<rect width="65" height="65" rx="25" fill="url(#paint0_linear)"/>
<path d="M37.8333 32C37.8333 30.6193 38.9526 29.5 40.3333 29.5C41.714 29.5 42.8333 30.6193 42.8333 32C42.8333 33.3807 41.714 34.5 40.3333 34.5C38.9526 34.5 37.8333 33.3807 37.8333 32Z" fill="white"/>
<path fill-rule="evenodd" clip-rule="evenodd" d="M46.0688 23.1234C44.9726 20.5473 42.5502 18.6954 39.6677 18.3921L38.5813 18.2777C33.0941 17.7003 27.5595 17.7384 22.0808 18.3913L21.3609 18.4771C18.5796 18.8085 16.3758 20.9815 16.0053 23.7579C15.2754 29.2284 15.2754 34.7717 16.0053 40.2422C16.3758 43.0186 18.5796 45.1916 21.3609 45.523L22.0808 45.6088C27.5595 46.2617 33.0941 46.2998 38.5813 45.7223L39.6677 45.608C42.5502 45.3047 44.9726 43.4528 46.0688 40.8767C47.8009 40.361 49.1229 38.8594 49.3399 37.004C49.7288 33.6794 49.7288 30.3207 49.3399 26.9961C49.1229 25.1407 47.8009 23.6391 46.0688 23.1234ZM38.3197 20.764C33.0178 20.2061 27.6702 20.2429 22.3766 20.8737L21.6567 20.9595C20.0087 21.1559 18.7029 22.4435 18.4834 24.0886C17.7827 29.3396 17.7827 34.6605 18.4834 39.9115C18.7029 41.5566 20.0087 42.8442 21.6567 43.0406L22.3766 43.1264C27.6702 43.7572 33.0178 43.794 38.3197 43.2361L39.4061 43.1217C40.8237 42.9726 42.078 42.2738 42.9472 41.2366C40.4336 41.3832 37.8865 41.3177 35.4029 41.0401C33.2873 40.8037 31.5763 39.1378 31.3267 37.004C30.9379 33.6794 30.9379 30.3207 31.3267 26.9961C31.5763 24.8623 33.2873 23.1964 35.4029 22.96C37.8865 22.6824 40.4336 22.6169 42.9471 22.7635C42.078 21.7263 40.8237 21.0275 39.4061 20.8783L38.3197 20.764ZM44.1289 25.3579C44.1299 25.3643 44.1309 25.3707 44.1319 25.3771L44.142 25.4419L44.4731 25.3905C44.6444 25.4074 44.8154 25.4254 44.9861 25.4445C45.9651 25.5539 46.7447 26.3275 46.8568 27.2865C47.2231 30.4182 47.2231 33.5819 46.8568 36.7136C46.7447 37.6726 45.9651 38.4462 44.9861 38.5556C44.8154 38.5747 44.6444 38.5927 44.473 38.6096L44.142 38.5582L44.1319 38.623C44.1309 38.6294 44.1299 38.6358 44.1289 38.6422C41.3312 38.8953 38.4619 38.8664 35.6805 38.5556C34.7015 38.4462 33.9219 37.6726 33.8098 36.7136C33.4435 33.5819 33.4435 30.4182 33.8098 27.2865C33.9219 26.3275 34.7015 25.5539 35.6805 25.4445C38.4619 25.1336 41.3312 25.1048 44.1289 25.3579Z" fill="white"/>
<path d="M37.8333 32C37.8333 30.6193 38.9526 29.5 40.3333 29.5C41.714 29.5 42.8333 30.6193 42.8333 32C42.8333 33.3807 41.714 34.5 40.3333 34.5C38.9526 34.5 37.8333 33.3807 37.8333 32Z" stroke="white" stroke-width="0.5"/>
<path fill-rule="evenodd" clip-rule="evenodd" d="M46.0688 23.1234C44.9726 20.5473 42.5502 18.6954 39.6677 18.3921L38.5813 18.2777C33.0941 17.7003 27.5595 17.7384 22.0808 18.3913L21.3609 18.4771C18.5796 18.8085 16.3758 20.9815 16.0053 23.7579C15.2754 29.2284 15.2754 34.7717 16.0053 40.2422C16.3758 43.0186 18.5796 45.1916 21.3609 45.523L22.0808 45.6088C27.5595 46.2617 33.0941 46.2998 38.5813 45.7223L39.6677 45.608C42.5502 45.3047 44.9726 43.4528 46.0688 40.8767C47.8009 40.361 49.1229 38.8594 49.3399 37.004C49.7288 33.6794 49.7288 30.3207 49.3399 26.9961C49.1229 25.1407 47.8009 23.6391 46.0688 23.1234ZM38.3197 20.764C33.0178 20.2061 27.6702 20.2429 22.3766 20.8737L21.6567 20.9595C20.0087 21.1559 18.7029 22.4435 18.4834 24.0886C17.7827 29.3396 17.7827 34.6605 18.4834 39.9115C18.7029 41.5566 20.0087 42.8442 21.6567 43.0406L22.3766 43.1264C27.6702 43.7572 33.0178 43.794 38.3197 43.2361L39.4061 43.1217C40.8237 42.9726 42.078 42.2738 42.9472 41.2366C40.4336 41.3832 37.8865 41.3177 35.4029 41.0401C33.2873 40.8037 31.5763 39.1378 31.3267 37.004C30.9379 33.6794 30.9379 30.3207 31.3267 26.9961C31.5763 24.8623 33.2873 23.1964 35.4029 22.96C37.8865 22.6824 40.4336 22.6169 42.9471 22.7635C42.078 21.7263 40.8237 21.0275 39.4061 20.8783L38.3197 20.764ZM44.1289 25.3579C44.1299 25.3643 44.1309 25.3707 44.1319 25.3771L44.142 25.4419L44.4731 25.3905C44.6444 25.4074 44.8154 25.4254 44.9861 25.4445C45.9651 25.5539 46.7447 26.3275 46.8568 27.2865C47.2231 30.4182 47.2231 33.5819 46.8568 36.7136C46.7447 37.6726 45.9651 38.4462 44.9861 38.5556C44.8154 38.5747 44.6444 38.5927 44.473 38.6096L44.142 38.5582L44.1319 38.623C44.1309 38.6294 44.1299 38.6358 44.1289 38.6422C41.3312 38.8953 38.4619 38.8664 35.6805 38.5556C34.7015 38.4462 33.9219 37.6726 33.8098 36.7136C33.4435 33.5819 33.4435 30.4182 33.8098 27.2865C33.9219 26.3275 34.7015 25.5539 35.6805 25.4445C38.4619 25.1336 41.3312 25.1048 44.1289 25.3579Z" stroke="white" stroke-width="0.5"/>
<defs>
<linearGradient id="paint0_linear" x1="0" y1="0" x2="65" y2="65" gradientUnits="userSpaceOnUse">
<stop stop-color="#5075EB"/>
<stop offset="1" stop-color="#4D72EA"/>
</linearGradient>
</defs>
</svg>
