<svg width="65" height="65" viewBox="0 0 65 65" fill="none" xmlns="http://www.w3.org/2000/svg">
<rect width="65" height="65" rx="25" fill="url(#paint0_linear)"/>
<path fill-rule="evenodd" clip-rule="evenodd" d="M30.75 21.6472C24.6638 22.2727 19.9166 27.4153 19.9166 33.6666C19.9166 40.3401 25.3265 45.75 32 45.75C38.2513 45.75 43.3939 41.0027 44.0194 34.9166H32C31.3096 34.9166 30.75 34.357 30.75 33.6666V21.6472ZM17.4166 33.6666C17.4166 25.6125 23.9458 19.0833 32 19.0833C32.6903 19.0833 33.25 19.6429 33.25 20.3333V32.4166H45.3333C46.0236 32.4166 46.5833 32.9763 46.5833 33.6666C46.5833 41.7208 40.0541 48.25 32 48.25C23.9458 48.25 17.4166 41.7208 17.4166 33.6666Z" fill="white"/>
<path fill-rule="evenodd" clip-rule="evenodd" d="M37.8333 19.7894V27.8333H45.8772C44.9388 23.8593 41.8073 20.7277 37.8333 19.7894ZM36.9966 17.1027C43.0305 17.8536 47.813 22.6361 48.5639 28.6699C48.6776 29.5834 47.9204 30.3333 47 30.3333H36.1666C35.7064 30.3333 35.3333 29.9602 35.3333 29.5V18.6666C35.3333 17.7462 36.0832 16.989 36.9966 17.1027Z" fill="white"/>
<path fill-rule="evenodd" clip-rule="evenodd" d="M30.75 21.6472C24.6638 22.2727 19.9166 27.4153 19.9166 33.6666C19.9166 40.3401 25.3265 45.75 32 45.75C38.2513 45.75 43.3939 41.0027 44.0194 34.9166H32C31.3096 34.9166 30.75 34.357 30.75 33.6666V21.6472ZM17.4166 33.6666C17.4166 25.6125 23.9458 19.0833 32 19.0833C32.6903 19.0833 33.25 19.6429 33.25 20.3333V32.4166H45.3333C46.0236 32.4166 46.5833 32.9763 46.5833 33.6666C46.5833 41.7208 40.0541 48.25 32 48.25C23.9458 48.25 17.4166 41.7208 17.4166 33.6666Z" stroke="white" stroke-width="0.5" stroke-linejoin="round"/>
<path fill-rule="evenodd" clip-rule="evenodd" d="M37.8333 19.7894V27.8333H45.8772C44.9388 23.8593 41.8073 20.7277 37.8333 19.7894ZM36.9966 17.1027C43.0305 17.8536 47.813 22.6361 48.5639 28.6699C48.6776 29.5834 47.9204 30.3333 47 30.3333H36.1666C35.7064 30.3333 35.3333 29.9602 35.3333 29.5V18.6666C35.3333 17.7462 36.0832 16.989 36.9966 17.1027Z" stroke="white" stroke-width="0.5" stroke-linejoin="round"/>
<defs>
<linearGradient id="paint0_linear" x1="0" y1="0" x2="65" y2="65" gradientUnits="userSpaceOnUse">
<stop stop-color="#5075EB"/>
<stop offset="1" stop-color="#4D72EA"/>
</linearGradient>
</defs>
</svg>
