<svg width="147" height="48" viewBox="0 0 147 48" fill="none" xmlns="http://www.w3.org/2000/svg">
<path d="M0 12V36L21 48V24L0 12Z" fill="#0066C9"/>
<path d="M21.0002 0L10.4868 6L31.5137 18V42L42.0002 36V12L21.0002 0Z" fill="#0066C9"/>
<path d="M68.7309 31H64.9809L72.0309 12.1H75.3309L82.3809 31H78.6309L77.2809 27.1H70.0809L68.7309 31ZM76.0809 23.8L73.6809 16.9L71.2809 23.8H76.0809ZM89.5902 31.15C88.7302 31.15 87.9102 30.98 87.1302 30.64C86.3502 30.28 85.6602 29.79 85.0602 29.17C84.4802 28.53 84.0102 27.78 83.6502 26.92C83.3102 26.06 83.1402 25.12 83.1402 24.1C83.1402 23.08 83.3102 22.14 83.6502 21.28C84.0102 20.42 84.4802 19.68 85.0602 19.06C85.6602 18.42 86.3502 17.93 87.1302 17.59C87.9102 17.23 88.7302 17.05 89.5902 17.05C90.1502 17.05 90.6502 17.13 91.0902 17.29C91.5302 17.43 91.9102 17.58 92.2302 17.74C92.5902 17.94 92.9102 18.16 93.1902 18.4V12.1H96.6402V31H94.0902L93.4902 29.65C93.1702 29.93 92.8202 30.18 92.4402 30.4C92.1002 30.6 91.6902 30.78 91.2102 30.94C90.7302 31.08 90.1902 31.15 89.5902 31.15ZM93.4902 24.1C93.4902 22.96 93.1602 22.05 92.5002 21.37C91.8402 20.69 91.0202 20.35 90.0402 20.35C89.0602 20.35 88.2402 20.69 87.5802 21.37C86.9202 22.05 86.5902 22.96 86.5902 24.1C86.5902 25.24 86.9202 26.15 87.5802 26.83C88.2402 27.51 89.0602 27.85 90.0402 27.85C91.0202 27.85 91.8402 27.51 92.5002 26.83C93.1602 26.15 93.4902 25.24 93.4902 24.1ZM112.245 17.2L106.995 31H103.695L98.4449 17.2H102.045L105.345 26.74L108.645 17.2H112.245ZM117.487 31H114.037V17.2H117.487V31ZM115.837 15.4C115.317 15.4 114.857 15.21 114.457 14.83C114.077 14.43 113.887 13.97 113.887 13.45C113.887 12.93 114.077 12.48 114.457 12.1C114.857 11.7 115.317 11.5 115.837 11.5C116.357 11.5 116.807 11.7 117.187 12.1C117.587 12.48 117.787 12.93 117.787 13.45C117.787 13.97 117.587 14.43 117.187 14.83C116.807 15.21 116.357 15.4 115.837 15.4ZM126.025 20.5H120.025V17.2H130.375V20.05L124.375 27.7H130.675V31H120.025V28.15L126.025 20.5ZM145.526 26.8C145.346 27.32 145.066 27.84 144.686 28.36C144.326 28.88 143.876 29.35 143.336 29.77C142.816 30.17 142.216 30.5 141.536 30.76C140.876 31.02 140.156 31.15 139.376 31.15C138.436 31.15 137.546 30.97 136.706 30.61C135.886 30.23 135.156 29.72 134.516 29.08C133.896 28.44 133.396 27.7 133.016 26.86C132.656 26 132.476 25.08 132.476 24.1C132.476 23.12 132.656 22.21 133.016 21.37C133.396 20.51 133.896 19.76 134.516 19.12C135.156 18.48 135.886 17.98 136.706 17.62C137.546 17.24 138.436 17.05 139.376 17.05C140.276 17.05 141.126 17.22 141.926 17.56C142.726 17.9 143.426 18.38 144.026 19C144.626 19.62 145.096 20.37 145.436 21.25C145.796 22.11 145.976 23.06 145.976 24.1C145.976 24.26 145.966 24.42 145.946 24.58C145.926 24.72 145.906 24.86 145.886 25C145.866 25.16 145.846 25.31 145.826 25.45H136.226C136.386 26.13 136.726 26.7 137.246 27.16C137.766 27.62 138.476 27.85 139.376 27.85C139.836 27.85 140.216 27.8 140.516 27.7C140.836 27.6 141.106 27.48 141.326 27.34C141.566 27.18 141.766 27 141.926 26.8H145.526ZM139.376 20.35C138.476 20.35 137.736 20.61 137.156 21.13C136.596 21.65 136.236 22.29 136.076 23.05H142.676C142.516 22.29 142.146 21.65 141.566 21.13C141.006 20.61 140.276 20.35 139.376 20.35Z" fill="#0066C9"/>
</svg>
