<svg width="47" height="48" viewBox="0 0 47 48" fill="none" xmlns="http://www.w3.org/2000/svg">
<path d="M42.2178 16.1447C42.2718 15.7358 42.3 15.3269 42.3 14.9203C42.3 9.32966 37.264 4.84351 31.6756 5.60256C30.0471 2.70501 26.9451 0.820312 23.5 0.820312C20.0549 0.820312 16.9529 2.70501 15.3243 5.60256C9.7243 4.84351 4.7 9.32966 4.7 14.9203C4.7 15.3269 4.7282 15.7358 4.78225 16.1447C1.8847 17.7756 0 20.8776 0 24.3203C0 27.7631 1.8847 30.8651 4.78225 32.496C4.7282 32.9049 4.7 33.3138 4.7 33.7203C4.7 39.311 9.7243 43.7854 15.3243 43.0381C16.9529 45.9356 20.0549 47.8203 23.5 47.8203C26.9451 47.8203 30.0471 45.9356 31.6756 43.0381C37.264 43.7854 42.3 39.311 42.3 33.7203C42.3 33.3138 42.2718 32.9049 42.2178 32.496C45.1153 30.8651 47 27.7631 47 24.3203C47 20.8776 45.1153 17.7756 42.2178 16.1447ZM21.0442 34.6979L12.4268 25.97L15.7732 22.6706L21.0771 28.0427L31.2456 17.9518L34.5544 21.2888L21.0442 34.6979Z" fill="#0066C9"/>
</svg>
