<svg width="25" height="22" viewBox="0 0 25 22" fill="none" xmlns="http://www.w3.org/2000/svg">
<path d="M7.89474 12.3211C10.8947 12.3211 13.1579 10.0579 13.1579 7.0579C13.1579 4.0579 10.8947 1.79474 7.89474 1.79474C4.89474 1.79474 2.63158 4.0579 2.63158 7.0579C2.63158 10.0579 4.89474 12.3211 7.89474 12.3211ZM7.89474 4.42632C9.44474 4.42632 10.5263 5.50789 10.5263 7.0579C10.5263 8.60789 9.44474 9.68947 7.89474 9.68947C6.34474 9.68947 5.26316 8.60789 5.26316 7.0579C5.26316 5.50789 6.34474 4.42632 7.89474 4.42632ZM9.21053 13.6368H6.57895C2.95132 13.6368 0 16.5882 0 20.2158V21.5316H2.63158V20.2158C2.63158 18.0395 4.40263 16.2684 6.57895 16.2684H9.21053C11.3868 16.2684 13.1579 18.0395 13.1579 20.2158V21.5316H15.7895V20.2158C15.7895 16.5882 12.8382 13.6368 9.21053 13.6368ZM21.5316 0L19.6711 1.86053C21.4092 3.60132 22.3684 5.91447 22.3684 8.37368C22.3684 10.8329 21.4092 13.1461 19.6711 14.8868L21.5316 16.7474C23.7684 14.5092 25 11.5355 25 8.37368C25 5.21184 23.7684 2.23816 21.5316 0Z" fill="#0066C9"/>
<path d="M17.8091 3.72107L15.9486 5.58423C16.6947 6.32765 17.1052 7.31844 17.1052 8.3737C17.1052 9.42896 16.6947 10.4198 15.9486 11.1632L17.8091 13.0263C19.0512 11.7842 19.7368 10.1329 19.7368 8.3737C19.7368 6.61449 19.0512 4.96317 17.8091 3.72107Z" fill="#0066C9"/>
</svg>
