<svg width="21" height="26" viewBox="0 0 21 26" fill="none" xmlns="http://www.w3.org/2000/svg">
<path d="M16.4125 7.575V6.3125C16.4125 2.83179 13.5807 0 10.1 0C6.61929 0 3.7875 2.83179 3.7875 6.3125V10.1H2.525C1.13246 10.1 0 11.2325 0 12.625V22.725C0 24.1175 1.13246 25.25 2.525 25.25H17.675C19.0675 25.25 20.2 24.1175 20.2 22.725V12.625C20.2 11.2325 19.0675 10.1 17.675 10.1H6.3125V6.3125C6.3125 4.22433 8.01183 2.525 10.1 2.525C12.1882 2.525 13.8875 4.22433 13.8875 6.3125V7.575H16.4125ZM17.675 12.625L17.6775 22.725H2.525V12.625H17.675Z" fill="#0066C9"/>
</svg>
