<svg width="35" height="35" viewBox="0 0 35 35" fill="none" xmlns="http://www.w3.org/2000/svg">
<path d="M17.5702 28.0331C11.724 28.0331 9.0518 25.0697 9.0518 22.8978C9.0518 22.3806 9.26605 21.8847 9.64297 21.527C10.0199 21.1711 10.5297 20.9845 11.0515 21.0136C13.553 21.0136 12.8984 24.7469 17.5702 24.7469C19.9567 24.7469 21.3592 23.3158 21.3592 21.9761C21.3592 21.1692 20.895 20.2475 19.3199 19.8781L14.1045 18.5695C9.91673 17.5097 9.1867 15.192 9.1867 13.0433C9.1867 8.58474 13.2892 6.96891 17.1933 6.96891C20.7918 6.96891 25.0689 8.94446 25.0689 11.6181C25.0689 12.7692 24.1008 13.3875 22.976 13.3875C20.8375 13.3875 21.1965 10.4008 16.8997 10.4008C14.7631 10.4008 13.6363 11.3983 13.6363 12.7925C13.6363 14.1867 15.3007 14.6592 16.7588 14.9761L20.6093 15.8414C24.8269 16.7864 25.9477 19.2461 25.9477 21.6028C25.9477 25.2292 23.1248 28.0292 17.5642 28.0292L17.5702 28.0331ZM33.7102 20.3642C33.8808 19.4114 33.9642 18.447 33.9642 17.4825C33.984 12.6311 31.8395 8.02085 28.108 4.89419C24.3805 1.76558 19.4488 0.445303 14.6421 1.2853C13.1682 0.439469 11.4938 -0.00386352 9.78977 2.5366e-05C6.29236 0.0194698 3.0707 1.88613 1.31901 4.89808C-0.428699 7.91002 -0.440601 11.62 1.28926 14.6417C0.323156 19.9189 2.01532 25.3303 5.81625 29.1336C9.61917 32.935 15.0508 34.6461 20.3633 33.7128C21.8373 34.5586 23.5096 35.0019 25.2097 35C28.7091 34.9786 31.9268 33.1139 33.6785 30.1039C35.4282 27.0939 35.4421 23.3858 33.7102 20.3642Z" fill="#0066C9"/>
</svg>
